HIERARCHY
ROOT root
{
	OFFSET 0.000000 0.000000 0.000000
	CHANNELS 6 Xposition Yposition Zposition Zrotation Yrotation Xrotation
	JOINT lhip
	{
		OFFSET 0.058581 -0.082280 -0.017664
		CHANNELS 3 Zrotation Yrotation Xrotation
		JOINT lknee
		{
			OFFSET 0.043451 -0.386469 0.008037
			CHANNELS 3 Zrotation Yrotation Xrotation
			JOINT lankle
			{
				OFFSET -0.014790 -0.426874 -0.037428
				CHANNELS 3 Zrotation Yrotation Xrotation
				JOINT ltoe
				{
					OFFSET 0.041054 -0.060286 0.122042
					CHANNELS 3 Zrotation Yrotation Xrotation
					End Site
					{
						OFFSET 0.000000 0.000000 0.000000
					}
				}
			}
		}
	}
	JOINT rhip
	{
		OFFSET -0.060310 -0.090513 -0.013543
		CHANNELS 3 Zrotation Yrotation Xrotation
		JOINT rknee
		{
			OFFSET -0.043257 -0.383688 -0.004843
			CHANNELS 3 Zrotation Yrotation Xrotation
			JOINT rankle
			{
				OFFSET 0.019056 -0.420046 -0.034562
				CHANNELS 3 Zrotation Yrotation Xrotation
				JOINT rtoe
				{
					OFFSET -0.034840 -0.062106 0.130323
					CHANNELS 3 Zrotation Yrotation Xrotation
					End Site
					{
						OFFSET 0.000000 0.000000 0.000000
					}
				}
			}
		}
	}
	JOINT lowerback
	{
		OFFSET 0.004439 0.124404 -0.038385
		CHANNELS 3 Zrotation Yrotation Xrotation
		JOINT upperback
		{
			OFFSET 0.004488 0.137956 0.026820
			CHANNELS 3 Zrotation Yrotation Xrotation
			JOINT chest
			{
				OFFSET -0.002265 0.056032 0.002855
				CHANNELS 3 Zrotation Yrotation Xrotation
				JOINT lowerneck
				{
					OFFSET -0.013390 0.211636 -0.033468
					CHANNELS 3 Zrotation Yrotation Xrotation
					JOINT upperneck
					{
						OFFSET 0.010113 0.088937 0.050410
						CHANNELS 3 Zrotation Yrotation Xrotation
						End Site
						{
							OFFSET 0.000000 0.000000 0.000000
						}
					}
				}
				JOINT lclavicle
				{
					OFFSET 0.071702 0.114000 -0.018898
					CHANNELS 3 Zrotation Yrotation Xrotation
					JOINT lshoulder
					{
						OFFSET 0.122921 0.045205 -0.019046
						CHANNELS 3 Zrotation Yrotation Xrotation
						JOINT lelbow
						{
							OFFSET 0.255332 -0.015649 -0.022946
							CHANNELS 3 Zrotation Yrotation Xrotation
							JOINT lwrist
							{
								OFFSET 0.265709 0.012698 -0.007375
								CHANNELS 3 Zrotation Yrotation Xrotation
								End Site
								{
									OFFSET 0.000000 0.000000 0.000000
								}
							}
						}
					}
				}
				JOINT rclavicle
				{
					OFFSET -0.082954 0.112472 -0.023707
					CHANNELS 3 Zrotation Yrotation Xrotation
					JOINT rshoulder
					{
						OFFSET -0.113228 0.046853 -0.008472
						CHANNELS 3 Zrotation Yrotation Xrotation
						JOINT relbow
						{
							OFFSET -0.260127 -0.014369 -0.031269
							CHANNELS 3 Zrotation Yrotation Xrotation
							JOINT rwrist
							{
								OFFSET -0.269108 0.006794 -0.006027
								CHANNELS 3 Zrotation Yrotation Xrotation
								End Site
								{
									OFFSET 0.000000 0.000000 0.000000
								}
							}
						}
					}
				}
			}
		}
	}
}
MOTION
Frames: 16
Frame Time: 0.033333
0.109810 -1.929239 0.863410 177.829665 -0.511688 84.238117 14.256009 2.805318 -32.849954 -11.723463 3.351073 59.477931 4.960676 4.623819 -29.522619 0.000000 -0.000000 0.000000 -8.090706 -6.775676 -23.126454 1.726841 -6.421273 85.245650 3.454174 -7.029684 -15.608304 0.000000 -0.000000 0.000000 -5.860774 8.996746 27.462734 0.983537 1.526992 6.777435 0.205469 1.618476 1.122871 4.570073 -4.718976 -16.996169 2.543906 -10.193289 -8.956779 -33.713787 -4.496637 6.287632 -43.154110 3.822879 8.487664 11.249719 -53.791167 -2.626328 18.161646 -4.399157 -12.832753 32.679676 13.965123 3.686153 40.648278 12.105884 1.356881 -41.574591 36.579452 -40.060728 -11.505152 9.346723 2.351798 
0.115002 -1.855755 0.886434 177.740376 0.686578 85.549653 14.953924 3.520643 -28.989777 -12.020575 3.040824 60.540642 3.428939 6.843942 -27.324011 0.000000 -0.000000 0.000000 -6.804459 -6.262223 -30.100141 3.430318 -9.571331 80.300463 4.145345 -6.826075 -16.286248 0.000000 -0.000000 0.000000 -6.134259 6.644327 28.189569 1.680382 0.700728 2.814327 0.114141 -0.080286 1.308786 4.304011 -1.455061 -15.651403 1.847843 -7.849884 -7.026946 -31.964907 -2.946540 6.918121 -38.019426 5.662662 8.902547 11.832625 -62.864202 -2.287001 27.115384 -4.109265 -10.422637 32.329794 10.269449 1.986913 42.392488 8.959930 2.891640 -52.435585 44.511035 -44.364672 -15.751916 12.419018 7.329692 
0.123075 -1.785548 0.911580 178.176587 1.856238 85.882504 15.837113 5.035116 -28.225248 -12.331627 2.066130 65.857894 0.666848 7.141137 -17.855790 0.000000 -0.000000 0.000000 -7.056738 -5.667244 -34.119397 3.078208 -10.916085 73.441031 4.028026 -6.356754 -15.562512 0.000000 -0.000000 0.000000 -6.589574 4.644478 28.473722 2.910519 -0.631981 1.626722 0.703606 -1.744774 1.160056 3.888610 2.646129 -14.548905 1.010518 -4.178392 -6.336922 -29.091547 -1.372495 6.530206 -35.328028 6.997121 9.648113 9.621748 -69.360366 0.784114 30.044007 -4.843260 -8.680362 30.696656 6.916756 0.272866 42.763545 7.642761 3.439828 -57.512773 49.301600 -47.727679 -16.314464 12.671806 6.482733 
0.128952 -1.692119 0.929675 178.748851 2.649148 85.446780 17.307791 5.440356 -24.080937 -8.455718 3.436299 68.048891 4.148785 12.419526 -13.613977 0.000000 -0.000000 0.000000 -9.757040 -5.904844 -36.257989 4.603604 -8.937326 64.446022 3.081252 -9.035330 -13.352059 0.000000 -0.000000 0.000000 -6.308340 1.737771 25.728512 3.596625 -2.543514 2.592694 1.080284 -3.871432 0.539474 1.662826 4.026720 -10.162689 1.746410 6.621467 -5.900192 -27.415598 -2.047621 9.621108 -35.091902 9.305704 8.128933 -2.432736 -72.706975 8.724019 31.430326 -0.852751 -14.339899 28.006783 6.200853 0.751191 44.548493 5.002806 2.663699 -58.208876 46.863971 -57.446204 -13.716903 10.321805 5.297421 
0.131410 -1.632417 0.933268 178.510243 3.347489 84.148602 18.836139 5.531608 -18.741867 -11.259422 1.697681 67.365538 1.361848 7.898135 -16.387319 0.000000 -0.000000 0.000000 -11.675569 -5.458699 -35.599964 4.331156 -7.740642 59.600971 3.720272 -8.698047 -12.137142 0.000000 -0.000000 0.000000 -5.746486 0.029219 24.196806 3.950701 -3.100126 3.885754 1.126693 -4.647167 0.254209 1.566009 5.936117 -8.417508 0.583318 9.993886 -4.501898 -27.873017 -2.349817 9.517213 -37.271806 8.723517 9.548878 -1.176572 -71.807951 6.589836 30.268298 -1.529948 -16.797058 27.406950 4.974706 0.868793 45.420090 4.077766 1.633300 -56.409723 43.418537 -61.591893 -8.781090 6.503082 -3.114095 
0.132783 -1.551086 0.929712 179.155530 4.130953 83.169184 19.527799 5.514468 -11.418633 -15.421585 -2.287313 61.764249 -3.360892 6.570422 -17.797005 0.000000 -0.000000 0.000000 -15.013444 -5.835544 -34.478594 3.966603 -7.570658 53.516845 7.718719 -7.475192 -8.360007 0.000000 -0.000000 0.000000 -4.318474 -3.100006 22.900323 3.630915 -3.241627 3.097169 1.138878 -6.101422 0.419192 1.851471 5.311305 -6.961693 -0.655391 15.373354 -2.738053 -30.088606 -1.516072 9.594204 -41.187662 6.055048 11.694083 1.624751 -73.279701 7.908722 30.080198 -1.613477 -17.987098 26.755149 2.760856 -0.375591 45.146104 2.150661 0.758074 -49.423921 38.656246 -62.540218 0.732549 5.382525 -16.902958 
0.130296 -1.473249 0.915431 -179.299948 4.463762 82.743348 18.331670 4.687146 -6.027481 -14.421882 -3.383021 61.672334 0.298316 8.189549 -21.952600 0.000000 -0.000000 0.000000 -18.668924 -7.656883 -33.480340 3.256298 -7.942174 49.076964 11.190848 -6.782879 -3.502554 0.000000 -0.000000 0.000000 -1.904596 -6.471940 20.838760 3.438056 -4.347163 3.154938 0.382430 -7.331483 1.163373 1.658602 5.072272 -8.201244 -1.575337 20.174951 -0.489080 -31.846208 -1.071201 8.432350 -46.371360 2.079558 13.329463 4.364358 -78.947929 6.857682 28.025084 -3.474085 -17.919995 25.935169 1.588863 -1.124238 43.857955 1.791214 0.412264 -45.620117 35.922654 -63.560927 6.042739 5.809512 -16.298609 
0.127747 -1.395921 0.891610 -179.084765 4.122209 83.030549 17.229136 4.700368 -1.729531 -9.623487 -0.389966 63.652172 -0.335551 9.527696 -22.775410 0.000000 -0.000000 0.000000 -21.546870 -8.422607 -33.349318 2.097901 -7.213689 47.213053 14.391758 -4.999641 2.893938 0.000000 -0.000000 0.000000 0.053775 -8.192153 18.276520 3.796618 -4.886667 3.829654 0.337965 -8.047697 0.888506 0.730389 4.948973 -7.792949 -3.510814 23.237764 -1.131521 -32.327073 -2.643404 7.375235 -51.800422 -2.814990 15.992463 8.193352 -83.956644 8.182819 26.498577 -6.097078 -16.614985 24.757933 1.068021 -1.159584 42.401450 1.267228 0.395748 -47.649758 35.797331 -65.257992 9.671077 6.824684 -21.528621 
0.127038 -1.321974 0.859744 -179.611968 4.214464 84.569369 16.570179 5.044927 0.682502 -6.728218 1.389678 66.526000 -1.735458 12.162444 -21.538132 0.000000 -0.000000 0.000000 -22.950123 -7.006191 -34.238189 1.522080 -5.978227 49.546492 11.289754 -6.262664 -4.083444 0.000000 -0.000000 0.000000 2.406028 -9.917965 15.198667 4.553937 -4.802387 3.839508 0.158611 -8.600785 1.530280 0.468188 5.721535 -8.841938 -5.095941 24.962976 -0.358482 -30.478259 -5.197656 7.044671 -56.046381 -7.002692 16.927327 30.165193 -87.158083 -7.785570 25.724057 -9.668632 -12.480979 22.600807 1.600583 -1.513790 41.897683 1.802668 -0.168816 -50.547104 37.890385 -64.312804 15.517101 8.921368 -24.004966 
0.122354 -1.236983 0.820129 179.538752 3.197523 86.293612 13.916637 4.383358 1.485999 -5.141659 2.066762 72.129059 -2.383777 14.083695 -16.248484 0.000000 -0.000000 0.000000 -25.860060 -5.322832 -34.154634 1.909415 -3.160130 57.868586 9.715891 -4.489755 -17.467095 0.000000 -0.000000 0.000000 4.705620 -11.356179 14.861881 5.465670 -5.685913 3.844491 0.107356 -9.092342 0.904376 -0.055453 6.709104 -9.134476 -9.238765 26.847017 -2.378522 -29.576900 -6.246708 6.242057 -54.904130 -6.231835 14.564174 37.184457 -85.576647 -10.152108 26.498012 -13.368021 -4.161143 21.071606 4.296045 -2.570155 40.699084 3.742983 0.676166 -55.231039 43.677779 -65.980467 19.335585 11.962450 -26.347306 
0.111476 -1.176681 0.798425 177.707615 2.469916 87.289420 12.553630 4.860466 -0.437336 -7.552661 2.393342 78.272922 -4.781463 10.536778 -13.019421 0.000000 -0.000000 0.000000 -28.420165 -5.506380 -33.798411 2.325749 -2.511188 62.014586 9.483032 -3.116469 -21.859118 0.000000 -0.000000 0.000000 7.282021 -11.464527 17.633139 5.575099 -5.819910 5.003544 -0.273397 -8.511764 -0.848083 -1.021779 5.504265 -10.496613 -11.610475 27.384824 -9.053642 -31.820017 -5.334015 6.859701 -53.061649 -0.123813 11.056123 26.198746 -77.585362 -6.443473 27.912165 -9.964405 -6.004995 21.062479 6.916222 -3.797957 40.186475 6.205007 2.648537 -65.661243 48.984367 -74.794086 19.258503 11.295605 -23.780591 
0.099374 -1.122336 0.783575 176.751001 1.563624 89.309304 13.436441 6.636338 -7.376779 -8.083154 5.916988 85.139926 -4.305927 8.348491 -14.601936 0.000000 -0.000000 0.000000 -31.119308 -7.781453 -31.933982 4.064171 -1.040742 62.364497 8.977076 -2.289323 -25.487946 0.000000 -0.000000 0.000000 8.505047 -9.792454 20.311122 5.260837 -6.293082 6.013323 -0.658133 -7.137138 -2.304940 -1.414033 3.648044 -11.358750 -11.439294 26.406069 -14.075229 -33.595209 -5.273545 8.447818 -50.430342 8.325552 5.390967 7.531743 -63.501801 7.469589 26.031251 -9.839443 -4.765482 21.232129 10.170457 -2.978859 42.805985 8.766376 3.038950 -85.042414 52.401653 -87.676211 18.475685 10.111806 -17.054864 
0.082463 -1.068080 0.777750 177.439579 0.110408 91.371954 14.493582 8.592118 -17.084249 -9.582243 9.597546 89.749332 -1.180580 6.226392 -20.537803 0.000000 -0.000000 0.000000 -34.540776 -10.154890 -27.154496 5.238357 0.642707 59.190816 10.052118 -1.604330 -28.176266 0.000000 -0.000000 0.000000 8.159119 -6.540553 22.973846 4.322798 -6.627010 6.339368 -1.567109 -5.767930 -2.710981 -1.074360 0.633329 -12.258274 -9.141182 23.463722 -17.036148 -35.194936 -3.791702 11.276679 -45.485866 19.192715 3.030758 -0.932681 -59.861594 9.926157 33.017987 -6.640371 -5.377843 22.831080 12.563597 -3.106525 46.860342 11.152280 5.790802 -105.459521 52.975223 -103.174525 14.010383 7.180829 -3.765503 
0.059522 -1.012367 0.778629 -179.593682 -0.675956 93.893999 17.073171 8.714084 -28.839022 -5.902819 14.374689 93.811326 1.660781 9.261699 -24.603729 0.000000 -0.000000 0.000000 -37.173943 -11.907235 -19.385815 5.168021 1.310847 52.535310 11.582084 -2.067667 -28.840590 0.000000 -0.000000 0.000000 6.256829 -1.331014 24.376831 4.537348 -5.945979 6.210598 -1.164715 -3.768417 -2.131314 -0.890409 -2.278828 -13.021370 -6.164436 16.319959 -15.714782 -32.540966 1.365191 13.189575 -44.419293 27.021967 1.196310 -7.743719 -69.834354 18.333132 34.742866 -4.972134 -9.765644 24.286267 12.315400 -2.221900 48.401434 13.750144 7.478021 -121.458852 53.460859 -112.442552 9.045023 5.809472 10.862120 
0.030495 -0.948260 0.788817 -174.230006 -0.899218 96.891150 19.492599 9.834636 -41.053162 -0.396119 17.505456 93.367081 2.636050 8.522859 -27.443093 0.000000 -0.000000 0.000000 -37.913301 -13.232216 -8.455971 2.933060 1.124339 42.008637 14.825302 -1.932198 -25.392163 0.000000 -0.000000 0.000000 4.379347 6.030595 24.592880 5.361648 -4.260663 4.070623 0.825359 -1.184901 -0.568836 -0.615643 -4.950525 -15.163177 -2.458495 4.086354 -9.074809 -27.697235 3.463056 13.445518 -46.635109 25.248342 -1.668482 -21.789234 -77.762189 35.267888 32.021908 -4.823157 -12.328668 26.329644 10.381291 -0.174277 46.464796 12.823697 6.179257 -127.551685 58.041694 -114.407031 -2.800782 11.435172 18.921459 
-0.001670 -0.878894 0.806639 -167.340244 -1.594422 100.335368 19.697007 10.653989 -51.903619 -0.409165 21.900755 85.796031 3.237010 5.350061 -28.056894 0.000000 -0.000000 0.000000 -36.930401 -13.115466 1.058921 -0.939941 -0.675368 34.218925 20.548416 -2.054129 -13.789656 0.000000 -0.000000 0.000000 1.922103 11.522465 24.967121 4.506885 -3.204825 1.850832 1.745920 0.827759 0.013783 1.658197 -8.921525 -17.768301 2.437947 -4.900616 -5.336280 -28.461346 1.523942 11.867701 -44.097327 15.096581 2.307229 -22.494647 -84.481396 36.386474 34.569922 -6.176641 -12.608130 29.680815 10.566597 1.223362 44.852887 12.556243 6.612462 -102.725994 66.213389 -90.263896 -11.004803 17.221016 25.964092 
